<?xml version='1.0' encoding='utf-8'?>
<svg xmlns="http://www.w3.org/2000/svg" width="91.44mm" height="91.44mm" clip-rule="evenodd" fill-rule="evenodd" image-rendering="optimizeQuality" shape-rendering="geometricPrecision" text-rendering="geometricPrecision" version="1.1" viewBox="0 0 184.23 184.23"> <defs> <style type="text/css">.fil0 {fill:#F0F0F0} .fil1 {fill:#011627;fill-rule:nonzero}</style> </defs> <polygon class="fil0" points="-0 184.23 184.23 184.23 184.23 0 -0 0"/> <path class="fil1" d="m68.24 50.11h47.76c4.99 0 9.52 2.04 12.8 5.32s5.32 7.82 5.32 12.8v47.76c0 4.99-2.04 9.52-5.32 12.8s-7.82 5.32-12.8 5.32h-47.76c-4.99 0-9.52-2.04-12.8-5.32s-5.32-7.82-5.32-12.8v-47.76c0-4.99 2.04-9.52 5.32-12.8s7.82-5.32 12.8-5.32zm9.81 43.71c-0.94 0-1.71-0.76-1.71-1.71 0-0.94 0.76-1.71 1.71-1.71h12.37v-12.37c0-0.94 0.76-1.71 1.71-1.71 0.94 0 1.71 0.76 1.71 1.71v12.37h12.37c0.94 0 1.71 0.76 1.71 1.71 0 0.94-0.76 1.71-1.71 1.71h-12.37v12.37c0 0.94-0.76 1.71-1.71 1.71-0.94 0-1.71-0.76-1.71-1.71v-12.37h-12.37zm37.95-40.3h-47.76c-4.04 0-7.72 1.66-10.39 4.32-2.67 2.67-4.32 6.34-4.32 10.39v47.76c0 4.04 1.66 7.72 4.32 10.39 2.67 2.67 6.35 4.32 10.39 4.32h47.76c4.04 0 7.72-1.66 10.39-4.32 2.67-2.67 4.32-6.35 4.32-10.39v-47.76c0-4.05-1.66-7.72-4.32-10.39-2.67-2.67-6.35-4.32-10.39-4.32z"/> </svg>